<svg width="27" height="25" viewBox="0 0 27 25" fill="none" xmlns="http://www.w3.org/2000/svg">
<path d="M8.37168 11.7204C8.37168 12.1644 8.19528 12.5903 7.88128 12.9043C7.56728 13.2183 7.14141 13.3947 6.69735 13.3947C6.25329 13.3947 5.82741 13.2183 5.51341 12.9043C5.19941 12.5903 5.02301 12.1644 5.02301 11.7204C5.02301 11.2763 5.19941 10.8504 5.51341 10.5364C5.82741 10.2224 6.25329 10.046 6.69735 10.046C7.14141 10.046 7.56728 10.2224 7.88128 10.5364C8.19528 10.8504 8.37168 11.2763 8.37168 11.7204ZM15.069 11.7204C15.069 12.1644 14.8926 12.5903 14.5786 12.9043C14.2646 13.2183 13.8388 13.3947 13.3947 13.3947C12.9506 13.3947 12.5248 13.2183 12.2108 12.9043C11.8968 12.5903 11.7204 12.1644 11.7204 11.7204C11.7204 11.2763 11.8968 10.8504 12.2108 10.5364C12.5248 10.2224 12.9506 10.046 13.3947 10.046C13.8388 10.046 14.2646 10.2224 14.5786 10.5364C14.8926 10.8504 15.069 11.2763 15.069 11.7204ZM20.092 13.3947C20.5361 13.3947 20.962 13.2183 21.276 12.9043C21.59 12.5903 21.7664 12.1644 21.7664 11.7204C21.7664 11.2763 21.59 10.8504 21.276 10.5364C20.962 10.2224 20.5361 10.046 20.092 10.046C19.648 10.046 19.2221 10.2224 18.9081 10.5364C18.5941 10.8504 18.4177 11.2763 18.4177 11.7204C18.4177 12.1644 18.5941 12.5903 18.9081 12.9043C19.2221 13.2183 19.648 13.3947 20.092 13.3947Z" fill="#E1F4F3"/>
<path d="M3.62494 24.7852L3.65843 24.7785C6.72246 24.1707 8.59437 23.3687 9.46503 22.9284C10.7469 23.2703 12.068 23.4425 13.3947 23.4407C20.7919 23.4407 26.7894 18.1933 26.7894 11.7204C26.7894 5.24737 20.7919 0 13.3947 0C5.99747 0 0 5.24737 0 11.7204C0 14.6672 1.24403 17.3629 3.29844 19.4223C3.15471 20.7452 2.86036 22.0473 2.42109 23.3034L2.41607 23.3218C2.29124 23.6816 2.15499 24.0373 2.00753 24.3884C1.87526 24.6998 2.13143 25.0481 2.46462 24.9945C2.8525 24.931 3.23933 24.8613 3.62494 24.7852ZM4.96441 19.5814C4.98786 19.3362 4.95696 19.089 4.8739 18.8571C4.79084 18.6253 4.65767 18.4147 4.48387 18.2402C2.70908 16.4587 1.67434 14.1783 1.67434 11.7204C1.67434 6.37588 6.70405 1.67434 13.3947 1.67434C20.0853 1.67434 25.1151 6.37588 25.1151 11.7204C25.1151 17.0665 20.0853 21.7664 13.3947 21.7664C12.2145 21.7681 11.0391 21.615 9.89868 21.311C9.50015 21.2042 9.07623 21.2483 8.70823 21.4349C8.06026 21.763 6.63205 22.3892 4.29802 22.93C4.62364 21.8369 4.84674 20.7159 4.96441 19.5814Z" fill="#E1F4F3"/>
</svg>
