<svg width="471" height="459" viewBox="0 0 471 459" fill="none" xmlns="http://www.w3.org/2000/svg">
<path d="M319.481 109.076H316.959V39.9867C316.959 29.3816 312.746 19.2108 305.247 11.7119C297.748 4.2129 287.577 1.33816e-05 276.972 1.43751e-10H130.598C125.347 -1.40798e-05 120.147 1.03426 115.296 3.04377C110.445 5.05328 106.036 7.99867 102.323 11.7118C98.6102 15.4249 95.6648 19.833 93.6553 24.6844C91.6458 29.5358 90.6115 34.7355 90.6115 39.9866V419.013C90.6114 424.264 91.6457 429.464 93.6553 434.316C95.6648 439.167 98.6102 443.575 102.323 447.288C106.036 451.001 110.445 453.947 115.296 455.956C120.147 457.966 125.347 459 130.598 459H276.972C287.577 459 297.748 454.787 305.247 447.288C312.746 439.789 316.959 429.619 316.959 419.013V158.254H319.481L319.481 109.076Z" fill="#3F3D56"/>
<path d="M278.586 10.4033H259.479C260.358 12.5575 260.693 14.8947 260.456 17.209C260.218 19.5234 259.415 21.7439 258.118 23.6748C256.82 25.6058 255.067 27.188 253.014 28.282C250.961 29.3761 248.67 29.9484 246.344 29.9486H162.488C160.161 29.9484 157.871 29.3761 155.817 28.2821C153.764 27.188 152.011 25.6058 150.714 23.6749C149.416 21.7439 148.613 19.5234 148.376 17.2091C148.138 14.8947 148.474 12.5575 149.352 10.4033H131.507C123.587 10.4033 115.992 13.5494 110.391 19.1495C104.791 24.7496 101.645 32.3451 101.645 40.2649V418.735C101.645 422.657 102.418 426.54 103.918 430.163C105.419 433.786 107.618 437.078 110.391 439.851C113.164 442.624 116.456 444.823 120.079 446.324C123.702 447.825 127.585 448.597 131.507 448.597H278.586C282.507 448.597 286.39 447.825 290.013 446.324C293.636 444.823 296.928 442.624 299.701 439.851C302.474 437.078 304.674 433.786 306.174 430.163C307.675 426.54 308.447 422.657 308.447 418.735V40.2648C308.447 36.3434 307.675 32.4603 306.174 28.8373C304.674 25.2143 302.474 21.9224 299.701 19.1495C296.928 16.3766 293.636 14.177 290.013 12.6763C286.39 11.1756 282.507 10.4033 278.586 10.4033Z" fill="white"/>
<path d="M235.513 174.516C250.142 174.516 262.002 173.387 262.002 171.993C262.002 170.6 250.142 169.471 235.513 169.471C220.884 169.471 209.024 170.6 209.024 171.993C209.024 173.387 220.884 174.516 235.513 174.516Z" fill="#E6E6E6"/>
<path d="M470.217 62.9855H226.36V143.039H235.597V163.977L256.534 143.039H470.217V62.9855Z" fill="#01A38A"/>
<path d="M364.39 90.0946H253.502V93.4598H364.39V90.0946Z" fill="white"/>
<path d="M446.77 101.736H253.502V105.101H446.77V101.736Z" fill="white"/>
<path d="M446.581 113.377H253.502V116.742H446.581V113.377Z" fill="white"/>
<path d="M407.918 304.438H213.264V368.339H220.637V385.052L237.35 368.339H407.918V304.438Z" fill="#01A38A"/>
<path d="M323.443 326.077H234.929V328.763H323.443V326.077Z" fill="white"/>
<path d="M389.202 335.37H234.929V338.056H389.202V335.37Z" fill="white"/>
<path d="M389.051 344.662H234.929V347.348H389.051V344.662Z" fill="white"/>
<path d="M220.569 393.465C232.247 393.465 241.713 392.564 241.713 391.451C241.713 390.339 232.247 389.438 220.569 389.438C208.891 389.438 199.425 390.339 199.425 391.451C199.425 392.564 208.891 393.465 220.569 393.465Z" fill="#E6E6E6"/>
<path d="M162.353 267.858C176.983 267.858 188.842 266.728 188.842 265.335C188.842 263.942 176.983 262.812 162.353 262.812C147.724 262.812 135.865 263.942 135.865 265.335C135.865 266.728 147.724 267.858 162.353 267.858Z" fill="#E6E6E6"/>
<path d="M0 188.509H171.488V244.806H164.992V259.529L150.269 244.806H0V188.509Z" fill="#01A38A"/>
<path d="M95.7675 207.14H17.7875V209.506H95.7675V207.14Z" fill="white"/>
<path d="M153.7 215.326H17.7875V217.693H153.7V215.326Z" fill="white"/>
<path d="M153.567 223.513H17.7875V225.879H153.567V223.513Z" fill="white"/>
</svg>
